<svg width="25" height="25" viewBox="0 0 25 25" fill="none" xmlns="http://www.w3.org/2000/svg">
<path d="M18.5938 15.8618L21.6531 3.88291H25V2H20.1907L19.4695 4.8238L0 4.80988L2.06989 15.8617H18.5938V15.8618ZM18.9887 6.70638L17.1314 13.9788H3.63287L2.26857 6.69442L18.9887 6.70638Z" fill="black"/>
<path d="M16.0163 22.7236C17.6766 22.7236 19.0273 21.3728 19.0273 19.7125C19.0273 18.0522 17.6766 16.7015 16.0163 16.7015H4.67174C3.01144 16.7015 1.66064 18.0522 1.66064 19.7125C1.66064 21.3728 3.01141 22.7236 4.67174 22.7236C6.33208 22.7236 7.68281 21.3728 7.68281 19.7125C7.68281 19.3138 7.6047 18.933 7.46332 18.5844H13.2247C13.0833 18.933 13.0052 19.3138 13.0052 19.7125C13.0052 21.3728 14.356 22.7236 16.0163 22.7236ZM5.79991 19.7125C5.79991 20.3346 5.29382 20.8407 4.67174 20.8407C4.04966 20.8407 3.54355 20.3346 3.54355 19.7125C3.54355 19.0905 4.04964 18.5844 4.67174 18.5844C5.29382 18.5844 5.79991 19.0905 5.79991 19.7125ZM17.1445 19.7125C17.1445 20.3346 16.6384 20.8407 16.0163 20.8407C15.3942 20.8407 14.8881 20.3346 14.8881 19.7125C14.8881 19.0905 15.3942 18.5844 16.0163 18.5844C16.6384 18.5844 17.1445 19.0905 17.1445 19.7125Z" fill="black"/>
</svg>
